<!-- Generator: Adobe Illustrator 18.0.0, SVG Export Plug-In  -->
<svg version="1.1"
	 xmlns="http://www.w3.org/2000/svg" xmlns:xlink="http://www.w3.org/1999/xlink" xmlns:a="http://ns.adobe.com/AdobeSVGViewerExtensions/3.0/"
	 x="0px" y="0px" width="375.1px" height="281.8px" viewBox="0 0 375.1 281.8" enable-background="new 0 0 375.1 281.8"
	 xml:space="preserve">
<defs>
</defs>
<g>
	<path fill="#397ABE" d="M281.8,211.8h46.6V100.1L276,47.6l-33,33l38.8,38.8L281.8,211.8L281.8,211.8z M328.5,235.1h-67.9h-94.6
		l-38.8-38.8l16.6-16.6l32.1,32.1h66l-65.1-65.1l16.7-16.6l65,65v-66l-32-32l16.4-16.5L162.2,0L82.6,0v0L0,0l46.4,46.4v0.2h0.3
		l96.1,0l34,34l-49.8,49.8l-34-34V70H46.4v45.8l80.7,80.7l-32.8,32.8l52.5,52.5h79.7h148.7v-0.1L328.5,235.1z"/>
</g>
</svg>
