<!-- Generator: Adobe Illustrator 18.0.0, SVG Export Plug-In  -->
<svg version="1.1"
	 xmlns="http://www.w3.org/2000/svg" xmlns:xlink="http://www.w3.org/1999/xlink" xmlns:a="http://ns.adobe.com/AdobeSVGViewerExtensions/3.0/"
	 x="0px" y="0px" width="30.6px" height="30.6px" viewBox="0 0 30.6 30.6" enable-background="new 0 0 30.6 30.6"
	 xml:space="preserve">
<defs>
</defs>
<g>
	<g>
		<path fill="#C8C9C5" d="M15.3,30.6C6.9,30.6,0,23.8,0,15.3C0,6.9,6.9,0,15.3,0c8.4,0,15.3,6.9,15.3,15.3
			C30.6,23.8,23.8,30.6,15.3,30.6z M15.3,0.7C7.2,0.7,0.7,7.2,0.7,15.3C0.7,23.4,7.2,30,15.3,30C23.4,30,30,23.4,30,15.3
			C30,7.2,23.4,0.7,15.3,0.7z"/>
	</g>
	<g>
		<g>
			<g>
				<path fill-rule="evenodd" clip-rule="evenodd" fill="#211915" d="M23.6,12c0-1.4-1.1-2.5-2.5-2.5H9.5c-1.4,0-2.5,1.1-2.5,2.5
					v6.6c0,1.4,1.1,2.5,2.5,2.5h11.6c1.4,0,2.5-1.1,2.5-2.5V12z M13.7,18.1v-6.2l4.7,3.1L13.7,18.1z M13.7,18.1"/>
			</g>
		</g>
	</g>
</g>
</svg>

