<!-- Generator: Adobe Illustrator 18.0.0, SVG Export Plug-In  -->
<svg version="1.1"
	 xmlns="http://www.w3.org/2000/svg" xmlns:xlink="http://www.w3.org/1999/xlink" xmlns:a="http://ns.adobe.com/AdobeSVGViewerExtensions/3.0/"
	 x="0px" y="0px" width="30.6px" height="30.6px" viewBox="0 0 30.6 30.6" enable-background="new 0 0 30.6 30.6"
	 xml:space="preserve">
<defs>
</defs>
<g>
	<g>
		<g>
			<g>
				<path fill="#211915" d="M27.4,18.9"/>
			</g>
		</g>
	</g>
	<g>
		<path fill="#C8C9C5" d="M15.3,30.6C6.9,30.6,0,23.8,0,15.3C0,6.9,6.9,0,15.3,0c8.4,0,15.3,6.9,15.3,15.3
			C30.6,23.8,23.8,30.6,15.3,30.6z M15.3,0.7C7.2,0.7,0.7,7.2,0.7,15.3C0.7,23.4,7.2,30,15.3,30C23.4,30,30,23.4,30,15.3
			C30,7.2,23.4,0.7,15.3,0.7z"/>
	</g>
	<g>
		<path fill="#211915" d="M23.5,19.3l-2.4-2.5c-0.5-0.5-1.3-0.5-1.8,0L18,18.1c-0.1,0-0.2-0.1-0.2-0.1c-0.8-0.4-1.8-1-3-2.1
			c-1.1-1.1-1.7-2.2-2.2-3c0-0.1-0.1-0.2-0.1-0.2l0.8-0.8l0.4-0.4c0.5-0.5,0.5-1.3,0-1.8l-2.5-2.4c-0.5-0.5-1.3-0.5-1.8,0L8.9,7.9
			l0,0c-0.2,0.3-0.4,0.6-0.6,1c-0.1,0.4-0.2,0.7-0.3,1C7.7,12.6,9,15,12.3,18.4c4.6,4.6,8.3,4.2,8.5,4.2c0.3,0,0.7-0.1,1-0.3
			c0.4-0.1,0.7-0.3,1-0.6l0,0l0.7-0.7C24,20.6,24,19.8,23.5,19.3L23.5,19.3z"/>
	</g>
</g>
</svg>
