<!-- Generator: Adobe Illustrator 18.0.0, SVG Export Plug-In  -->
<svg version="1.1"
	 xmlns="http://www.w3.org/2000/svg" xmlns:xlink="http://www.w3.org/1999/xlink" xmlns:a="http://ns.adobe.com/AdobeSVGViewerExtensions/3.0/"
	 x="0px" y="0px" width="30.6px" height="30.6px" viewBox="0 0 30.6 30.6" enable-background="new 0 0 30.6 30.6"
	 xml:space="preserve">
<defs>
</defs>
<g>
	<g>
		<path fill="#C8C9C5" d="M15.3,30.6C6.9,30.6,0,23.8,0,15.3C0,6.9,6.9,0,15.3,0c8.4,0,15.3,6.9,15.3,15.3
			C30.6,23.8,23.8,30.6,15.3,30.6z M15.3,0.7C7.2,0.7,0.7,7.2,0.7,15.3C0.7,23.4,7.2,30,15.3,30C23.4,30,30,23.4,30,15.3
			C30,7.2,23.4,0.7,15.3,0.7z"/>
	</g>
	<g>
		<g>
			<g>
				<path fill="#211915" d="M16.2,10.6V6.9h-2.4c-0.1,0.1-0.1,0.3-0.1,0.5c0,0.1-0.1,0.1-0.1,0.2c-0.2,1.4-0.9,2.3-2.1,2.8
					c-0.4,0.2-0.7,0.2-1,0.2v2.9h1.7c0,4.1,0,6.3,0,6.4v0.2c0.2,1.8,1.2,2.9,2.8,3.3c0.7,0.2,1.4,0.3,2.1,0.3c0.9,0,1.9-0.2,2.8-0.5
					v-3.5c-0.5,0.2-1,0.3-1.5,0.4c-0.8,0.2-1.5,0.1-2.1-0.5c-0.1-0.1-0.1-0.2-0.2-0.3c-0.1-0.4-0.1-0.9-0.1-1.3v-4.6H20v-2.9H16.2z
					 M16.2,10.6"/>
			</g>
		</g>
	</g>
</g>
</svg>
