<!-- Generator: Adobe Illustrator 18.0.0, SVG Export Plug-In  -->
<svg version="1.1"
	 xmlns="http://www.w3.org/2000/svg" xmlns:xlink="http://www.w3.org/1999/xlink" xmlns:a="http://ns.adobe.com/AdobeSVGViewerExtensions/3.0/"
	 x="0px" y="0px" width="30.6px" height="30.6px" viewBox="0 0 30.6 30.6" enable-background="new 0 0 30.6 30.6"
	 xml:space="preserve">
<defs>
</defs>
<g>
	<path fill="#C8C9C5" d="M15.3,30.6C6.9,30.6,0,23.8,0,15.3C0,6.9,6.9,0,15.3,0c8.4,0,15.3,6.9,15.3,15.3
		C30.6,23.8,23.8,30.6,15.3,30.6z M15.3,0.7C7.2,0.7,0.7,7.2,0.7,15.3C0.7,23.4,7.2,30,15.3,30C23.4,30,30,23.4,30,15.3
		C30,7.2,23.4,0.7,15.3,0.7z"/>
</g>
<g>
	<path fill="#211915" d="M21.6,9.8c0,1.8-1.5,3.3-3.3,3.3c-1.8,0-3.3-1.5-3.3-3.3c0-1.8,1.5-3.3,3.3-3.3C20.1,6.5,21.6,7.9,21.6,9.8
		z"/>
	<circle fill="#211915" cx="18.3" cy="20.8" r="3.3"/>
	<polygon fill="#211915" points="17.8,21.7 7,15.9 17.7,8.9 18.8,10.6 10.8,15.7 18.7,20 	"/>
	<circle fill="#211915" cx="8.8" cy="15.9" r="3.3"/>
</g>
</svg>
