<?xml version="1.0" encoding="utf-8"?>
<!-- Generator: Adobe Illustrator 16.0.0, SVG Export Plug-In . SVG Version: 6.00 Build 0)  -->
<!DOCTYPE svg PUBLIC "-//W3C//DTD SVG 1.1//EN" "http://www.w3.org/Graphics/SVG/1.1/DTD/svg11.dtd">
<svg version="1.1" id="Layer_1" xmlns="http://www.w3.org/2000/svg" xmlns:xlink="http://www.w3.org/1999/xlink" x="0px" y="0px"
	 width="512.346px" height="132.039px" viewBox="0 0 512.346 132.039" enable-background="new 0 0 512.346 132.039"
	 xml:space="preserve">
<g>
	
		<line fill="#737377" stroke="#737377" stroke-width="2.2879" stroke-miterlimit="10" x1="368.001" y1="23.064" x2="368.001" y2="90.313"/>
	<path fill="#20140F" d="M321.054,27.164V52.54h11.762c2.693,0,4.67-0.594,5.926-1.783c1.256-1.191,2.086-3.549,2.5-7.07h1.764
		v21.851h-1.764c-0.033-2.506-0.357-4.346-0.975-5.522c-0.621-1.176-1.479-2.057-2.574-2.645c-1.092-0.588-2.721-0.881-4.877-0.881
		h-11.762v20.286c0,3.271,0.207,5.424,0.619,6.473c0.32,0.795,0.984,1.475,2.002,2.047c1.396,0.764,2.854,1.141,4.381,1.141h2.332
		v1.764h-27.707v-1.764h2.283c2.668,0,4.604-0.773,5.809-2.326c0.762-1.018,1.141-3.465,1.141-7.334V35.069
		c0-3.271-0.207-5.432-0.615-6.479c-0.318-0.788-0.973-1.473-1.955-2.043c-1.365-0.762-2.824-1.142-4.379-1.142h-2.283v-1.763
		h48.035l0.617,14.185h-1.666c-0.824-3.012-1.785-5.228-2.881-6.64c-1.094-1.412-2.443-2.435-4.045-3.071
		c-1.607-0.635-4.088-0.952-7.449-0.952H321.054z"/>
	<g>
		<g>
			<g>
				<path fill="#43538E" d="M153.111,111.491h-0.035c-0.414,1.744-1.566,2.807-3.383,2.807c-2.808,0-3.941-2.467-3.941-6.623
					c0-4.031,1.134-6.658,4.121-6.658c3.005,0,3.6,2.646,3.6,3.904h-0.757c0-1.727-0.918-3.293-2.808-3.293
					c-2.555,0-3.4,2.395-3.4,6.01c0,3.457,0.701,6.049,3.293,6.049c2.43,0,3.168-2.359,3.168-4.625v-0.791h-3.527v-0.613h4.283
					v6.424h-0.613V111.491z"/>
				<path fill="#43538E" d="M161.877,110.087h-4.842l-1.224,3.994h-0.755l3.994-12.85h0.953l3.852,12.85H163.1L161.877,110.087z
					 M159.519,101.989h-0.036l-2.268,7.486h4.518L159.519,101.989z"/>
				<path fill="#43538E" d="M165.891,110.788c0,1.639,1.061,2.898,2.914,2.898c1.783,0,2.971-1.279,2.971-2.916
					c0-1.674-0.9-2.248-2.34-2.754l-1.457-0.504c-1.691-0.574-2.61-1.402-2.61-3.148c0-2.07,1.421-3.348,3.437-3.348
					c2.377,0,3.438,1.35,3.438,3.49h-0.756c0-1.727-0.791-2.879-2.608-2.879c-1.44,0-2.753,0.666-2.753,2.664
					c0,1.422,0.773,2.105,1.889,2.484l1.908,0.666c1.655,0.574,2.609,1.385,2.609,3.273c0,2.285-1.691,3.582-3.727,3.582
					c-2.969,0-3.67-2.088-3.67-3.33v-0.846h0.756V110.788z"/>
				<path fill="#43538E" d="M177.336,101.917h-3.42v-0.686h7.595v0.686h-3.419v12.164h-0.756V101.917z"/>
				<path fill="#43538E" d="M183.364,101.231h3.762c1.782,0,3.185,1.027,3.185,3.365c0,1.693-0.899,3.008-2.572,3.188v0.035
					c2.105,0.127,2.483,1.422,2.483,3.184v1.352c0,0.738,0.107,1.205,0.431,1.727h-0.863c-0.197-0.377-0.323-0.988-0.323-1.746
					v-1.313c0-1.834-0.503-2.898-2.573-2.898h-2.771v5.957h-0.757V101.231z M186.532,107.513c1.421,0,3.022-0.467,3.022-2.916
					c0-1.727-0.972-2.752-2.536-2.752h-2.897v5.668H186.532z"/>
				<path fill="#43538E" d="M200.966,107.657c0,5.633-2.322,6.641-4.14,6.641c-2.466,0-4.157-1.654-4.157-6.641
					c0-4.984,1.8-6.641,4.157-6.641C199.382,101.017,200.966,102.673,200.966,107.657z M193.425,107.657
					c0,3.527,0.72,6.029,3.401,6.029c2.357,0,3.383-1.945,3.383-6.029c0-3.475-0.773-6.029-3.383-6.029
					C194.307,101.628,193.425,104.13,193.425,107.657z"/>
				<path fill="#43538E" d="M203.468,101.231h6.136v0.686h-5.381v5.129h5.021v0.684h-5.021v5.668h5.544v0.684h-6.299V101.231z"/>
				<path fill="#43538E" d="M212.735,101.231l5.597,11.662h0.036v-11.662h0.755v12.85h-0.988l-5.615-11.66h-0.036v11.66h-0.756
					v-12.85H212.735z"/>
				<path fill="#43538E" d="M224.271,101.917h-3.42v-0.686h7.595v0.686h-3.419v12.164h-0.756V101.917z"/>
				<path fill="#43538E" d="M230.302,101.231h6.137v0.686h-5.381v5.129h5.02v0.684h-5.02v5.668h5.541v0.684h-6.297V101.231z"/>
				<path fill="#43538E" d="M238.689,101.231h3.761c1.781,0,3.183,1.027,3.183,3.365c0,1.693-0.9,3.008-2.572,3.188v0.035
					c2.105,0.127,2.482,1.422,2.482,3.184v1.352c0,0.738,0.109,1.205,0.432,1.727h-0.863c-0.197-0.377-0.324-0.988-0.324-1.746
					v-1.313c0-1.834-0.504-2.898-2.572-2.898h-2.771v5.957h-0.756V101.231z M241.854,107.513c1.421,0,3.025-0.467,3.025-2.916
					c0-1.727-0.973-2.752-2.539-2.752h-2.896v5.668H241.854z"/>
				<path fill="#43538E" d="M256.288,107.657c0,5.633-2.322,6.641-4.139,6.641c-2.467,0-4.158-1.654-4.158-6.641
					c0-4.984,1.801-6.641,4.158-6.641C254.704,101.017,256.288,102.673,256.288,107.657z M248.747,107.657
					c0,3.527,0.721,6.029,3.402,6.029c2.357,0,3.383-1.945,3.383-6.029c0-3.475-0.773-6.029-3.383-6.029
					C249.632,101.628,248.747,104.13,248.747,107.657z"/>
				<path fill="#43538E" d="M258.79,101.231h0.756v12.166h5.381v0.684h-6.137V101.231z"/>
				<path fill="#43538E" d="M275.06,107.657c0,5.633-2.322,6.641-4.141,6.641c-2.465,0-4.156-1.654-4.156-6.641
					c0-4.984,1.801-6.641,4.156-6.641C273.476,101.017,275.06,102.673,275.06,107.657z M267.519,107.657
					c0,3.527,0.719,6.029,3.4,6.029c2.359,0,3.385-1.945,3.385-6.029c0-3.475-0.773-6.029-3.385-6.029
					C268.401,101.628,267.519,104.13,267.519,107.657z"/>
				<path fill="#43538E" d="M284.507,111.491h-0.035c-0.414,1.744-1.566,2.807-3.383,2.807c-2.809,0-3.941-2.467-3.941-6.623
					c0-4.031,1.133-6.658,4.121-6.658c3.004,0,3.6,2.646,3.6,3.904h-0.758c0-1.727-0.918-3.293-2.807-3.293
					c-2.555,0-3.4,2.395-3.4,6.01c0,3.457,0.701,6.049,3.293,6.049c2.43,0,3.166-2.359,3.166-4.625v-0.791h-3.525v-0.613h4.283
					v6.424h-0.613V111.491z"/>
				<path fill="#43538E" d="M288.683,98.048h0.865l-1.676,2.518h-0.594L288.683,98.048z M287.62,101.231h0.756v12.85h-0.756V101.231
					z"/>
				<path fill="#43538E" d="M296.942,110.087h-4.84l-1.223,3.994h-0.758l3.996-12.85h0.953l3.852,12.85h-0.756L296.942,110.087z
					 M294.585,101.989h-0.035l-2.268,7.486h4.516L294.585,101.989z"/>
				<path fill="#43538E" d="M305.708,101.231h2.932c2.719,0,4.627,1.152,4.627,6.426s-2.197,6.424-4.627,6.424h-2.932V101.231z
					 M308.64,113.47c2.736,0,3.871-1.871,3.871-5.813s-0.92-5.813-3.871-5.813h-2.176v11.625H308.64z"/>
				<path fill="#43538E" d="M315.767,101.231h0.756v12.85h-0.756V101.231z"/>
				<path fill="#43538E" d="M325.091,110.087h-4.842l-1.225,3.994h-0.756l3.996-12.85h0.953l3.852,12.85h-0.756L325.091,110.087z
					 M322.731,101.989h-0.035l-2.268,7.486h4.516L322.731,101.989z"/>
				<path fill="#43538E" d="M335.761,111.491h-0.035c-0.414,1.744-1.564,2.807-3.383,2.807c-2.807,0-3.941-2.467-3.941-6.623
					c0-4.031,1.135-6.658,4.121-6.658c3.006,0,3.6,2.646,3.6,3.904h-0.756c0-1.727-0.918-3.293-2.809-3.293
					c-2.555,0-3.4,2.395-3.4,6.01c0,3.457,0.701,6.049,3.293,6.049c2.432,0,3.168-2.359,3.168-4.625v-0.791h-3.527v-0.613h4.283
					v6.424h-0.613V111.491z"/>
				<path fill="#43538E" d="M339.757,101.231l5.598,11.662h0.035v-11.662h0.756v12.85h-0.99l-5.613-11.66h-0.035v11.66h-0.758
					v-12.85H339.757z"/>
				<path fill="#43538E" d="M356.817,107.657c0,5.633-2.32,6.641-4.139,6.641c-2.465,0-4.156-1.654-4.156-6.641
					c0-4.984,1.799-6.641,4.156-6.641C355.233,101.017,356.817,102.673,356.817,107.657z M349.278,107.657
					c0,3.527,0.719,6.029,3.4,6.029c2.359,0,3.383-1.945,3.383-6.029c0-3.475-0.773-6.029-3.383-6.029
					C350.159,101.628,349.278,104.13,349.278,107.657z M353.362,98.048h0.863l-1.672,2.518h-0.594L353.362,98.048z"/>
				<path fill="#43538E" d="M359.606,110.788c0,1.639,1.063,2.898,2.918,2.898c1.779,0,2.969-1.279,2.969-2.916
					c0-1.674-0.9-2.248-2.34-2.754l-1.457-0.504c-1.691-0.574-2.609-1.402-2.609-3.148c0-2.07,1.42-3.348,3.438-3.348
					c2.375,0,3.436,1.35,3.436,3.49h-0.756c0-1.727-0.791-2.879-2.609-2.879c-1.439,0-2.754,0.666-2.754,2.664
					c0,1.422,0.775,2.105,1.891,2.484l1.906,0.666c1.656,0.574,2.609,1.385,2.609,3.273c0,2.285-1.691,3.582-3.723,3.582
					c-2.971,0-3.674-2.088-3.674-3.33v-0.846h0.756V110.788z"/>
				<path fill="#43538E" d="M371.054,101.917h-3.42v-0.686h7.594v0.686h-3.418v12.164h-0.756V101.917z"/>
				<path fill="#43538E" d="M377.083,101.231h0.756v12.85h-0.756V101.231z"/>
				<path fill="#43538E" d="M387.304,104.921c0-1.727-0.918-3.293-2.807-3.293c-2.557,0-3.4,2.395-3.4,6.01
					c0,3.457,0.701,6.049,3.291,6.049c2.484,0,3.078-2.916,3.078-3.924h0.756c0,1.512-0.756,4.535-3.959,4.535
					c-2.789,0-3.922-2.467-3.922-6.623c0-4.031,1.133-6.658,4.121-6.658c3.004,0,3.598,2.646,3.598,3.904H387.304z"/>
				<path fill="#43538E" d="M398.354,107.657c0,5.633-2.322,6.641-4.141,6.641c-2.465,0-4.156-1.654-4.156-6.641
					c0-4.984,1.801-6.641,4.156-6.641C396.771,101.017,398.354,102.673,398.354,107.657z M390.813,107.657
					c0,3.527,0.721,6.029,3.4,6.029c2.359,0,3.385-1.945,3.385-6.029c0-3.475-0.775-6.029-3.385-6.029
					C391.696,101.628,390.813,104.13,390.813,107.657z"/>
				<path fill="#43538E" d="M407.749,108.79l-3.51-7.559h0.828l3.059,6.768l3.131-6.768h0.756l-3.508,7.559v5.291h-0.756V108.79z"/>
				<path fill="#43538E" d="M420.673,101.917h-3.42v-0.686h7.592v0.686h-3.418v12.164h-0.754V101.917z"/>
				<path fill="#43538E" d="M426.7,101.231h3.76c1.781,0,3.186,1.027,3.186,3.365c0,1.693-0.9,3.008-2.574,3.188v0.035
					c2.107,0.127,2.484,1.422,2.484,3.184v1.352c0,0.738,0.107,1.205,0.432,1.727h-0.863c-0.197-0.377-0.322-0.988-0.322-1.746
					v-1.313c0-1.834-0.504-2.898-2.574-2.898h-2.773v5.957H426.7V101.231z M429.866,107.513c1.422,0,3.023-0.467,3.023-2.916
					c0-1.727-0.971-2.752-2.537-2.752h-2.898v5.668H429.866z"/>
				<path fill="#43538E" d="M442.067,110.087h-4.84l-1.223,3.994h-0.758l3.996-12.85h0.953l3.852,12.85h-0.756L442.067,110.087z
					 M439.712,101.989h-0.037l-2.268,7.486h4.518L439.712,101.989z"/>
				<path fill="#43538E" d="M447.163,101.917h-3.418v-0.686h7.594v0.686h-3.42v12.164h-0.756V101.917z"/>
				<path fill="#43538E" d="M457.853,110.087h-4.842l-1.223,3.994h-0.756l3.994-12.85h0.955l3.85,12.85h-0.756L457.853,110.087z
					 M455.495,101.989h-0.037l-2.266,7.486h4.516L455.495,101.989z"/>
				<path fill="#43538E" d="M470.413,102.204h-0.035l-3.689,11.877h-0.756l-3.689-11.877h-0.037v11.877h-0.756v-12.85h1.225
					l3.654,11.555h0.033l3.564-11.555h1.242v12.85h-0.756V102.204z"/>
				<path fill="#43538E" d="M473.96,101.231h0.754v12.85h-0.754V101.231z"/>
				<path fill="#43538E" d="M477.632,101.231h6.137v0.686h-5.383v5.129h5.021v0.684h-5.021v5.668h5.545v0.684h-6.299V101.231z"/>
				<path fill="#43538E" d="M486.899,101.231l5.596,11.662h0.035v-11.662h0.758v12.85h-0.99l-5.613-11.66h-0.037v11.66h-0.756
					v-12.85H486.899z"/>
				<path fill="#43538E" d="M498.435,101.917h-3.418v-0.686h7.594v0.686h-3.42v12.164h-0.756V101.917z"/>
				<path fill="#43538E" d="M512.347,107.657c0,5.633-2.322,6.641-4.141,6.641c-2.465,0-4.156-1.654-4.156-6.641
					c0-4.984,1.799-6.641,4.156-6.641C510.763,101.017,512.347,102.673,512.347,107.657z M504.806,107.657
					c0,3.527,0.721,6.029,3.4,6.029c2.359,0,3.385-1.945,3.385-6.029c0-3.475-0.775-6.029-3.385-6.029
					C505.687,101.628,504.806,104.13,504.806,107.657z"/>
			</g>
		</g>
	</g>
	<path fill="#20140F" d="M304.634,59.823c-2.225-2.092-5.572-3.618-10.045-4.571c3.838-1.238,6.742-3.135,8.713-5.688
		c1.965-2.555,2.951-5.455,2.951-8.69c0-3.775-1.256-7.114-3.764-10.019c-2.506-2.907-6.143-4.928-10.902-6.072
		c-3.143-0.765-7.314-1.142-12.52-1.142h-8.598v4.043c2.332-0.562,4.902-0.852,7.742-0.852c5.902,0,10.393,1.332,13.471,3.996
		c3.076,2.667,4.617,5.889,4.617,9.664c0,2.444-0.621,4.698-1.855,6.76c-1.238,2.063-3.025,3.596-5.355,4.594
		c-2.334,0.998-5.816,1.502-10.449,1.502c-1.811,0-3.469-0.053-4.975-0.166c-1.166-0.084-2.227-0.207-3.195-0.357v4.11
		c0.719-0.094,1.564-0.16,2.553-0.207c1.395-0.064,3.076-0.094,5.045-0.094c4.537,0,8.346,0.664,11.426,2
		c3.078,1.332,5.301,3.159,6.664,5.473c1.365,2.316,2.047,4.73,2.047,7.24c0,3.809-1.506,7.004-4.521,9.588
		c-3.018,2.59-7.396,3.883-13.139,3.883c-3.318,0-6.676-0.371-10.074-1.102v4.48h11.168c7.268,0,12.67-0.672,16.209-2.023
		c3.537-1.346,6.326-3.488,8.355-6.424c2.033-2.938,3.047-6.008,3.047-9.213C309.249,66.316,307.71,62.746,304.634,59.823z"/>
	<path fill="#20140F" d="M271.257,27.875c1.145-1.648,3.096-2.47,5.855-2.47h2.238v-1.763h-18.281l-23.041,50.515l-23.425-50.515
		h-9.182v9.814c0.02,0.444,0.039,0.882,0.039,1.372v42.182c0,3.619-0.347,5.932-1.045,6.951c-1.143,1.648-3.076,2.473-5.809,2.473
		h-2.287v1.764h22.475v-1.764h-2.287c-2.54,0-4.395-0.664-5.57-1.996c-0.855-0.984-1.285-3.461-1.285-7.428V33.878l24.947,54.32
		h1.574l24.896-54.32v43.133c0,3.619-0.35,5.932-1.047,6.951c-1.111,1.648-3.047,2.473-5.807,2.473h-2.287v1.764h27.422v-1.764
		h-2.238c-2.537,0-4.396-0.664-5.568-1.996c-0.891-0.984-1.334-3.461-1.334-7.428V34.829
		C270.21,31.21,270.558,28.894,271.257,27.875z"/>
	<path fill="#20140F" d="M201.412,23.816l0.054,22.026h-1.476c-1.971-6.57-4.777-11.296-8.428-14.184
		c-3.649-2.892-8.031-4.334-13.141-4.334c-4.285,0-8.156,1.089-11.615,3.259c-3.459,2.177-6.184,5.645-8.164,10.405
		c-1.984,4.76-2.977,10.68-2.977,17.757c0,5.844,0.937,9.176,2.807,13.459c1.875,4.283,4.691,7.57,8.454,9.854
		c3.759,2.285,8.052,3.426,12.878,3.426c4.188,0,7.887-0.895,11.092-2.688c3.204-1.795,6.729-5.357,10.569-10.689l1.474,0.955
		c-3.236,5.742-7.013,9.949-11.329,12.615c-4.316,2.664-9.442,4-15.376,4c-10.697,0-18.98-3.969-24.852-11.904
		c-4.379-5.902-6.572-11.123-6.572-19.123c0-6.44,1.445-12.36,4.332-17.755c2.889-5.397,6.863-9.577,11.929-12.545
		c5.061-2.968,10.591-4.453,16.59-4.453c4.665,0,9.268,1.142,13.806,3.428c1.334,0.698,2.287,1.049,2.855,1.049
		c0.858,0,1.604-0.301,2.239-0.905c0.824-0.857,2.834-2.126,3.185-3.651H201.412z"/>
	<g>
		<path fill="#737377" d="M388.354,28.276c0-2.205-1.172-4.205-3.584-4.205c-3.264,0-4.344,3.057-4.344,7.675
			c0,4.412,0.896,7.72,4.205,7.72c3.172,0,3.93-3.722,3.93-5.009h0.965c0,1.932-0.965,5.79-5.055,5.79
			c-3.563,0-5.008-3.147-5.008-8.456c0-5.146,1.445-8.501,5.26-8.501c3.838,0,4.598,3.379,4.598,4.986H388.354z"/>
		<path fill="#737377" d="M391.479,23.565h7.834v0.873h-6.869v6.55h6.408v0.873h-6.408v7.237h7.076v0.873h-8.041V23.565z"/>
		<path fill="#737377" d="M402.392,23.565l7.146,14.89h0.047v-14.89h0.965v16.406h-1.264l-7.17-14.889h-0.047v14.889h-0.965V23.565
			H402.392z"/>
		<path fill="#737377" d="M416.2,24.438h-4.363v-0.873h9.695v0.873h-4.367v15.533H416.2V24.438z"/>
		<path fill="#737377" d="M422.979,23.565h4.803c2.275,0,4.066,1.311,4.066,4.298c0,2.158-1.148,3.836-3.285,4.066v0.047
			c2.688,0.16,3.17,1.814,3.17,4.066v1.724c0,0.941,0.139,1.539,0.553,2.205h-1.104c-0.252-0.482-0.414-1.264-0.414-2.229v-1.677
			c0-2.344-0.643-3.699-3.285-3.699h-3.539v7.604h-0.965V23.565z M427.022,31.586c1.816,0,3.861-0.598,3.861-3.723
			c0-2.206-1.24-3.517-3.24-3.517h-3.699v7.239H427.022z"/>
		<path fill="#737377" d="M444.53,31.77c0,7.191-2.965,8.478-5.285,8.478c-3.148,0-5.307-2.113-5.307-8.478s2.297-8.479,5.307-8.479
			C442.509,23.29,444.53,25.405,444.53,31.77z M434.903,31.77c0,4.504,0.918,7.696,4.342,7.696c3.012,0,4.32-2.481,4.32-7.696
			c0-4.435-0.988-7.698-4.32-7.698C436.028,24.071,434.903,27.267,434.903,31.77z"/>
		<path fill="#737377" d="M461.22,24.808h-0.047l-4.709,15.164h-0.965l-4.711-15.164h-0.045v15.164h-0.967V23.565h1.564
			l4.664,14.752h0.045l4.549-14.752h1.586v16.406h-0.965V24.808z"/>
		<path fill="#737377" d="M464.827,23.565h7.836v0.873h-6.871v6.55h6.41v0.873h-6.41v7.237h7.078v0.873h-8.043V23.565z"/>
		<path fill="#737377" d="M474.616,23.565h3.744c3.469,0,5.904,1.471,5.904,8.204c0,6.731-2.801,8.202-5.904,8.202h-3.744V23.565z
			 M478.36,39.19c3.492,0,4.939-2.39,4.939-7.421c0-5.032-1.17-7.423-4.939-7.423h-2.779V39.19H478.36z"/>
		<path fill="#737377" d="M486.54,23.565h0.967v16.406h-0.967V23.565z"/>
		<path fill="#737377" d="M498.671,28.276c0-2.205-1.172-4.205-3.584-4.205c-3.264,0-4.344,3.057-4.344,7.675
			c0,4.412,0.896,7.72,4.205,7.72c3.172,0,3.93-3.722,3.93-5.009h0.965c0,1.932-0.965,5.79-5.055,5.79
			c-3.563,0-5.01-3.147-5.01-8.456c0-5.146,1.447-8.501,5.262-8.501c3.838,0,4.596,3.379,4.596,4.986H498.671z"/>
		<path fill="#737377" d="M511.858,31.77c0,7.191-2.965,8.478-5.285,8.478c-3.148,0-5.307-2.113-5.307-8.478
			s2.297-8.479,5.307-8.479C509.839,23.29,511.858,25.405,511.858,31.77z M502.231,31.77c0,4.504,0.918,7.696,4.342,7.696
			c3.01,0,4.32-2.481,4.32-7.696c0-4.435-0.988-7.698-4.32-7.698C503.356,24.071,502.231,27.267,502.231,31.77z"/>
		<path fill="#737377" d="M380.407,43.471h5.725c4.174,0,5.574,2.146,5.574,5.307c0,2.861-1.58,4.471-3.934,4.77v0.061
			c3.068,0.209,4.619,2.443,4.619,5.366c0,3.577-2.324,5.784-6.08,5.784h-5.904V43.471z M385.743,53.1
			c2.742,0,4.711-1.313,4.711-4.322c0-2.893-1.432-4.293-4.174-4.293h-4.619V53.1H385.743z M385.864,63.746
			c3.457,0,5.275-1.283,5.275-4.803c0-3.786-2.295-4.829-5.336-4.829h-4.143v9.632H385.864z"/>
		<path fill="#737377" d="M396.298,59.122c0,2.983,1.34,4.979,4.65,4.979c3.07,0,4.65-1.996,4.65-4.979V43.471h1.252v15.413
			c0,4.801-2.951,6.231-5.902,6.231s-5.902-1.131-5.902-6.231V43.471h1.252V59.122z"/>
		<path fill="#737377" d="M410.696,59.302c0,2.713,1.76,4.799,4.828,4.799c2.951,0,4.92-2.115,4.92-4.829
			c0-2.773-1.49-3.729-3.877-4.563l-2.412-0.834c-2.803-0.953-4.324-2.326-4.324-5.217c0-3.43,2.355-5.545,5.693-5.545
			c3.936,0,5.695,2.236,5.695,5.783h-1.254c0-2.863-1.309-4.77-4.32-4.77c-2.385,0-4.563,1.102-4.563,4.412
			c0,2.354,1.281,3.486,3.131,4.113l3.16,1.104c2.742,0.953,4.322,2.295,4.322,5.424c0,3.788-2.801,5.934-6.172,5.934
			c-4.916,0-6.08-3.457-6.08-5.516v-1.4h1.252V59.302z"/>
		<path fill="#737377" d="M428.464,44.604h-5.662v-1.133h12.58v1.133h-5.666v20.153h-1.252V44.604z"/>
		<path fill="#737377" d="M450.317,54.114c0,9.333-3.846,11.001-6.857,11.001c-4.084,0-6.885-2.742-6.885-11.001
			c0-8.258,2.98-11,6.885-11C447.694,43.114,450.317,45.856,450.317,54.114z M437.827,54.114c0,5.844,1.191,9.987,5.633,9.987
			c3.906,0,5.605-3.219,5.605-9.987c0-5.754-1.281-9.986-5.605-9.986C439.288,44.127,437.827,48.272,437.827,54.114z"/>
		<path fill="#737377" d="M453.745,59.302c0,2.713,1.762,4.799,4.83,4.799c2.951,0,4.918-2.115,4.918-4.829
			c0-2.773-1.488-3.729-3.875-4.563l-2.414-0.834c-2.803-0.953-4.322-2.326-4.322-5.217c0-3.43,2.355-5.545,5.693-5.545
			c3.936,0,5.695,2.236,5.695,5.783h-1.254c0-2.863-1.311-4.77-4.322-4.77c-2.385,0-4.561,1.102-4.561,4.412
			c0,2.354,1.281,3.486,3.131,4.113l3.16,1.104c2.742,0.953,4.32,2.295,4.32,5.424c0,3.788-2.803,5.934-6.17,5.934
			c-4.918,0-6.082-3.457-6.082-5.516v-1.4h1.252V59.302z"/>
		<path fill="#737377" d="M380.407,68.257h10.195v1.133h-8.941v8.496h8.314v1.133h-8.314v10.523h-1.254V68.257z"/>
		<path fill="#737377" d="M393.507,68.257h10.166v1.133h-8.912v8.496h8.316v1.133h-8.316v9.389h9.18v1.135h-10.434V68.257z"/>
		<path fill="#737377" d="M407.175,68.257h6.232c2.951,0,5.275,1.699,5.275,5.574c0,2.803-1.49,4.979-4.262,5.275v0.061
			c3.488,0.209,4.113,2.355,4.113,5.277v2.234c0,1.223,0.18,1.998,0.715,2.863h-1.43c-0.328-0.627-0.537-1.641-0.537-2.893v-2.176
			c0-3.041-0.834-4.799-4.262-4.799h-4.592v9.867h-1.254V68.257z M412.423,78.659c2.355,0,5.008-0.773,5.008-4.828
			c0-2.861-1.609-4.561-4.203-4.561h-4.799v9.389H412.423z"/>
		<path fill="#737377" d="M424.511,68.257l9.27,19.316h0.061V68.257h1.252v21.285h-1.641l-9.301-19.318h-0.059v19.318h-1.252V68.257
			H424.511z"/>
		<path fill="#737377" d="M448.849,82.923h-8.02l-2.025,6.619h-1.252l6.617-21.285h1.58l6.381,21.285h-1.254L448.849,82.923z
			 M444.944,69.509h-0.061l-3.754,12.4h7.48L444.944,69.509z"/>
		<path fill="#737377" d="M456.259,68.257l9.27,19.316h0.061V68.257h1.252v21.285H465.2l-9.301-19.318h-0.059v19.318h-1.252V68.257
			H456.259z"/>
		<path fill="#737377" d="M471.235,68.257h4.859c4.502,0,7.662,1.906,7.662,10.643c0,8.734-3.637,10.643-7.662,10.643h-4.859V68.257
			z M476.095,88.528c4.531,0,6.41-3.102,6.41-9.629c0-6.529-1.521-9.629-6.41-9.629h-3.605v19.258H476.095z"/>
		<path fill="#737377" d="M487.677,68.257h10.166v1.133h-8.912v8.496h8.316v1.133h-8.316v9.389h9.18v1.135h-10.434V68.257z"/>
		<path fill="#737377" d="M500.034,88.29l10.82-18.9h-10.195v-1.133h11.447v1.252l-10.82,18.898h10.939v1.135h-12.191V88.29z"/>
	</g>
	<g>
		<g>
			<path fill="#124B8B" d="M66.035,129.601c-33.436,0-60.543-27.105-60.543-60.543S32.6,8.515,66.035,8.515
				c33.438,0,60.543,27.105,60.543,60.543S99.473,129.601,66.035,129.601z M66.02,0C29.559,0,0,29.558,0,66.023
				c0,36.46,29.559,66.017,66.02,66.017s66.021-29.557,66.021-66.017C132.041,29.558,102.48,0,66.02,0z"/>
			<path fill="#124B8B" d="M66.03,123.282c-27.597,0-49.972-22.373-49.972-49.973c0-27.597,22.375-49.97,49.972-49.97
				c27.599,0,49.971,22.373,49.971,49.97C116.001,100.909,93.629,123.282,66.03,123.282z M66.019,16.48
				c-30.22,0-54.719,24.499-54.719,54.724c0,30.221,24.499,54.719,54.719,54.719c30.221,0,54.721-24.498,54.721-54.719
				C120.74,40.979,96.24,16.48,66.019,16.48z"/>
			<path fill="#124B8B" d="M66.024,116.964c-21.758,0-39.399-17.641-39.399-39.4c0-21.758,17.641-39.397,39.399-39.397
				c21.761,0,39.4,17.639,39.4,39.397C105.424,99.323,87.785,116.964,66.024,116.964z M66.02,32.962
				c-23.98,0-43.42,19.441-43.42,43.422c0,23.98,19.439,43.42,43.42,43.42s43.42-19.439,43.42-43.42
				C109.439,52.403,90,32.962,66.02,32.962z"/>
			<path fill="#124B8B" d="M66.02,110.647c-15.92,0-28.828-12.908-28.828-28.83c0-15.917,12.908-28.827,28.828-28.827
				c15.922,0,28.828,12.909,28.828,28.827C94.848,97.739,81.941,110.647,66.02,110.647z M66.02,49.444
				c-17.74,0-32.12,14.382-32.12,32.12c0,17.742,14.38,32.123,32.12,32.123s32.119-14.381,32.119-32.123
				C98.139,63.826,83.76,49.444,66.02,49.444z"/>
		</g>
		<g>
			<defs>
				<circle id="SVGID_1_" cx="66.02" cy="81.565" r="32.121"/>
			</defs>
			<clipPath id="SVGID_2_">
				<use xlink:href="#SVGID_1_"  overflow="visible"/>
			</clipPath>
			<g clip-path="url(#SVGID_2_)">
				<path fill="#124B8B" d="M66.203,112.548c-16.188,0-29.309-13.121-29.309-29.311c0-16.186,13.121-29.313,29.309-29.313
					c16.186,0,29.309,13.127,29.309,29.313C95.512,99.427,82.389,112.548,66.203,112.548z M66.02,48.112
					c-18.473,0-33.451,14.979-33.451,33.452c0,18.477,14.979,33.451,33.451,33.451s33.45-14.975,33.45-33.451
					C99.47,63.091,84.492,48.112,66.02,48.112z"/>
				<path fill="#124B8B" d="M66.327,117.21c-13.819,0-25.021-11.203-25.021-25.021s11.201-25.023,25.021-25.023
					c13.818,0,25.021,11.205,25.021,25.023S80.146,117.21,66.327,117.21z M66.02,61.017c-16.064,0-29.09,13.025-29.09,29.089
					c0,16.068,13.026,29.09,29.09,29.09s29.09-13.021,29.09-29.09C95.109,74.042,82.084,61.017,66.02,61.017z"/>
				<path fill="#124B8B" d="M66.452,121.872c-11.452,0-20.733-9.283-20.733-20.734S55,80.403,66.452,80.403
					c11.45,0,20.733,9.283,20.733,20.734S77.902,121.872,66.452,121.872z M66.02,73.919c-13.656,0-24.73,11.072-24.73,24.73
					s11.074,24.73,24.73,24.73s24.73-11.072,24.73-24.73S79.676,73.919,66.02,73.919z"/>
				<path fill="#124B8B" d="M66.577,126.534c-9.085,0-16.445-7.363-16.445-16.445c0-9.084,7.36-16.447,16.445-16.447
					c9.082,0,16.445,7.363,16.445,16.447C83.022,119.171,75.659,126.534,66.577,126.534z M66.02,86.821
					c-11.248,0-20.369,9.119-20.369,20.369c0,11.252,9.121,20.371,20.369,20.371s20.37-9.119,20.37-20.371
					C86.39,95.94,77.268,86.821,66.02,86.821z"/>
				<path fill="#124B8B" d="M66.701,131.196c-6.717,0-12.157-5.445-12.157-12.156c0-6.717,5.44-12.16,12.157-12.16
					c6.715,0,12.158,5.443,12.158,12.16C78.859,125.751,73.416,131.196,66.701,131.196z M66.02,99.724
					c-8.84,0-16.009,7.168-16.009,16.01s7.169,16.01,16.009,16.01s16.01-7.168,16.01-16.01S74.859,99.724,66.02,99.724z"/>
			</g>
		</g>
	</g>
</g>
</svg>
